<svg width="158" height="171" viewBox="0 0 158 171" fill="none" xmlns="http://www.w3.org/2000/svg">
<mask id="path-1-inside-1_0_37" fill="white">
<path fill-rule="evenodd" clip-rule="evenodd" d="M100.062 133.3C112.564 118.354 121.125 93.7996 121.125 78.4616C121.125 55.2023 102.265 36.3468 78.9989 36.3468C55.7333 36.3468 36.8728 55.2023 36.8728 78.4616C36.8728 93.6729 44.586 117.949 56.4313 132.928V151C56.4313 162.046 65.3856 171 76.4313 171H80.062C91.1077 171 100.062 162.046 100.062 151V133.3Z"/>
</mask>
<path fill-rule="evenodd" clip-rule="evenodd" d="M100.062 133.3C112.564 118.354 121.125 93.7996 121.125 78.4616C121.125 55.2023 102.265 36.3468 78.9989 36.3468C55.7333 36.3468 36.8728 55.2023 36.8728 78.4616C36.8728 93.6729 44.586 117.949 56.4313 132.928V151C56.4313 162.046 65.3856 171 76.4313 171H80.062C91.1077 171 100.062 162.046 100.062 151V133.3Z" fill="white"/>
<path d="M100.062 133.3L93.9258 128.167L92.062 130.395V133.3H100.062ZM56.4313 132.928H64.4313V130.147L62.7063 127.966L56.4313 132.928ZM113.125 78.4616C113.125 84.8688 111.283 93.8602 107.787 103.231C104.309 112.553 99.4464 121.568 93.9258 128.167L106.198 138.433C113.18 130.087 118.849 119.351 122.777 108.825C126.686 98.3473 129.125 87.3924 129.125 78.4616H113.125ZM78.9989 44.3468C97.8483 44.3468 113.125 59.6226 113.125 78.4616H129.125C129.125 50.782 106.681 28.3468 78.9989 28.3468V44.3468ZM44.8728 78.4616C44.8728 59.6226 60.1495 44.3468 78.9989 44.3468V28.3468C51.317 28.3468 28.8728 50.782 28.8728 78.4616H44.8728ZM62.7063 127.966C57.4902 121.37 52.976 112.422 49.7695 103.164C46.5522 93.8743 44.8728 84.9146 44.8728 78.4616H28.8728C28.8728 87.2199 31.05 98.004 34.6506 108.4C38.2621 118.828 43.5272 129.507 50.1563 137.89L62.7063 127.966ZM64.4313 151V132.928H48.4313V151H64.4313ZM76.4313 163C69.8039 163 64.4313 157.627 64.4313 151H48.4313C48.4313 166.464 60.9674 179 76.4313 179V163ZM80.062 163H76.4313V179H80.062V163ZM92.062 151C92.062 157.627 86.6894 163 80.062 163V179C95.5259 179 108.062 166.464 108.062 151H92.062ZM92.062 133.3V151H108.062V133.3H92.062Z" fill="#058B8C" mask="url(#path-1-inside-1_0_37)"/>
<rect x="52.6712" y="129.626" width="51.1532" height="8.27477" rx="4.13739" fill="white" stroke="#058B8C" stroke-width="4"/>
<rect x="52.6712" y="153.698" width="51.1532" height="8.27477" rx="4.13739" fill="white" stroke="#058B8C" stroke-width="4"/>
<rect x="52.6712" y="141.662" width="51.1532" height="8.27477" rx="4.13739" fill="white" stroke="#058B8C" stroke-width="4"/>
<path d="M79 20.5495L79 4" stroke="#058B8C" stroke-width="8" stroke-linecap="round"/>
<path d="M136.923 73.2072H153.473" stroke="#058B8C" stroke-width="8" stroke-linecap="round"/>
<path d="M123.586 35.4745L135.277 23.7827" stroke="#058B8C" stroke-width="8" stroke-linecap="round"/>
<path d="M25.2022 23.7828L36.894 35.4746" stroke="#058B8C" stroke-width="8" stroke-linecap="round"/>
<path d="M4.52704 73.2072H21.0766" stroke="#058B8C" stroke-width="8" stroke-linecap="round"/>
<path d="M70.7252 129.626V96.9032M70.7252 96.9032V84.8671C70.7252 84.8671 56.4324 84.8289 56.4324 90.8851C56.4324 96.9414 70.7252 96.9032 70.7252 96.9032Z" stroke="#058B8C" stroke-width="4"/>
<path d="M85.7703 129.626V96.9032M85.7703 96.9032V84.8671C85.7703 84.8671 100.063 84.8289 100.063 90.8851C100.063 96.9414 85.7703 96.9032 85.7703 96.9032Z" stroke="#058B8C" stroke-width="4"/>
<line x1="70.7253" y1="96.7838" x2="85.7703" y2="96.7838" stroke="#058B8C" stroke-width="4"/>
</svg>
