<svg width="163" height="154" viewBox="0 0 163 154" fill="none" xmlns="http://www.w3.org/2000/svg">
<path d="M65.7424 150L70.2719 130.523H93.3131L97.8427 150H65.7424Z" stroke="#058B8C" stroke-width="8"/>
<rect x="4" y="21.8921" width="154.946" height="107.66" rx="13" fill="white" stroke="#058B8C" stroke-width="8"/>
<path d="M17 131.552C9.30661 131.552 2.96601 125.76 2.10063 118.299H160.845C159.98 125.76 153.639 131.552 145.946 131.552H17Z" stroke="#058B8C" stroke-width="4"/>
<mask id="path-4-inside-1_0_57" fill="white">
<path fill-rule="evenodd" clip-rule="evenodd" d="M80.0034 77.9598C81.5089 78.5722 82.5754 79.9961 82.5754 81.6214V84.2813C82.5754 87.0427 84.8139 89.2813 87.5754 89.2813H100.112C102.874 89.2813 105.112 87.0427 105.112 84.2813V81.3879C105.112 79.8149 106.134 78.4324 107.585 77.8254C109.045 77.2149 110.741 77.4733 111.86 78.5921L113.907 80.6388C115.86 82.5914 119.025 82.5914 120.978 80.6388L129.843 71.7738C131.796 69.8211 131.796 66.6553 129.843 64.7027L127.798 62.6572C126.679 61.5383 126.42 59.8412 127.031 58.3814C127.638 56.9304 129.021 55.9092 130.593 55.9092H133.486C136.248 55.9092 138.486 53.6706 138.486 50.9092V38.3722C138.486 35.6108 136.248 33.3722 133.486 33.3722H130.832C129.205 33.3722 127.78 32.3047 127.168 30.798C126.562 29.3099 126.832 27.5909 127.968 26.455L129.844 24.5787C131.797 22.6261 131.797 19.4603 129.844 17.5077L120.979 8.64264C119.026 6.69002 115.86 6.69002 113.908 8.64264L112.271 10.2798C111.08 11.4701 109.272 11.7364 107.722 11.0805C106.192 10.4332 105.112 8.9741 105.112 7.31303V5C105.112 2.23858 102.874 0 100.112 0H87.5754C84.8139 0 82.5754 2.23858 82.5754 5V7.07762C82.5754 8.79189 81.4495 10.293 79.8643 10.9455C78.2865 11.595 76.4579 11.3176 75.2515 10.1112L73.7826 8.64233C71.83 6.68971 68.6642 6.68971 66.7116 8.64233L57.8465 17.5074C55.8939 19.46 55.8939 22.6258 57.8465 24.5784L59.3167 26.0486C60.5229 27.2548 60.8004 29.0832 60.1512 30.6607C59.4988 32.2461 57.9976 33.3722 56.2832 33.3722H54.2049C51.4435 33.3722 49.2049 35.6108 49.2049 38.3722V50.9092C49.2049 53.6706 51.4435 55.9092 54.2049 55.9092H56.5237C58.1835 55.9092 59.6415 56.9878 60.2884 58.5163C60.944 60.0656 60.6778 61.8726 59.4883 63.0622L57.8475 64.703C55.8948 66.6556 55.8948 69.8214 57.8475 71.7741L66.7125 80.6391C68.6651 82.5917 71.8309 82.5917 73.7835 80.6391L75.6634 78.7592C76.7985 77.6241 78.5164 77.3549 80.0034 77.9598ZM93.4111 60.2435C101.789 60.2435 108.58 53.452 108.58 45.0743C108.58 36.6966 101.789 29.9052 93.4111 29.9052C85.0334 29.9052 78.2419 36.6966 78.2419 45.0743C78.2419 53.452 85.0334 60.2435 93.4111 60.2435Z"/>
</mask>
<path fill-rule="evenodd" clip-rule="evenodd" d="M80.0034 77.9598C81.5089 78.5722 82.5754 79.9961 82.5754 81.6214V84.2813C82.5754 87.0427 84.8139 89.2813 87.5754 89.2813H100.112C102.874 89.2813 105.112 87.0427 105.112 84.2813V81.3879C105.112 79.8149 106.134 78.4324 107.585 77.8254C109.045 77.2149 110.741 77.4733 111.86 78.5921L113.907 80.6388C115.86 82.5914 119.025 82.5914 120.978 80.6388L129.843 71.7738C131.796 69.8211 131.796 66.6553 129.843 64.7027L127.798 62.6572C126.679 61.5383 126.42 59.8412 127.031 58.3814C127.638 56.9304 129.021 55.9092 130.593 55.9092H133.486C136.248 55.9092 138.486 53.6706 138.486 50.9092V38.3722C138.486 35.6108 136.248 33.3722 133.486 33.3722H130.832C129.205 33.3722 127.78 32.3047 127.168 30.798C126.562 29.3099 126.832 27.5909 127.968 26.455L129.844 24.5787C131.797 22.6261 131.797 19.4603 129.844 17.5077L120.979 8.64264C119.026 6.69002 115.86 6.69002 113.908 8.64264L112.271 10.2798C111.08 11.4701 109.272 11.7364 107.722 11.0805C106.192 10.4332 105.112 8.9741 105.112 7.31303V5C105.112 2.23858 102.874 0 100.112 0H87.5754C84.8139 0 82.5754 2.23858 82.5754 5V7.07762C82.5754 8.79189 81.4495 10.293 79.8643 10.9455C78.2865 11.595 76.4579 11.3176 75.2515 10.1112L73.7826 8.64233C71.83 6.68971 68.6642 6.68971 66.7116 8.64233L57.8465 17.5074C55.8939 19.46 55.8939 22.6258 57.8465 24.5784L59.3167 26.0486C60.5229 27.2548 60.8004 29.0832 60.1512 30.6607C59.4988 32.2461 57.9976 33.3722 56.2832 33.3722H54.2049C51.4435 33.3722 49.2049 35.6108 49.2049 38.3722V50.9092C49.2049 53.6706 51.4435 55.9092 54.2049 55.9092H56.5237C58.1835 55.9092 59.6415 56.9878 60.2884 58.5163C60.944 60.0656 60.6778 61.8726 59.4883 63.0622L57.8475 64.703C55.8948 66.6556 55.8948 69.8214 57.8475 71.7741L66.7125 80.6391C68.6651 82.5917 71.8309 82.5917 73.7835 80.6391L75.6634 78.7592C76.7985 77.6241 78.5164 77.3549 80.0034 77.9598ZM93.4111 60.2435C101.789 60.2435 108.58 53.452 108.58 45.0743C108.58 36.6966 101.789 29.9052 93.4111 29.9052C85.0334 29.9052 78.2419 36.6966 78.2419 45.0743C78.2419 53.452 85.0334 60.2435 93.4111 60.2435Z" fill="white"/>
<path d="M75.6634 78.7592L78.4918 81.5876L75.6634 78.7592ZM66.7125 80.6391L63.884 83.4675L66.7125 80.6391ZM73.7835 80.6391L70.9551 77.8107L73.7835 80.6391ZM57.8475 64.703L55.019 61.8746L57.8475 64.703ZM57.8475 71.7741L55.019 74.6025L57.8475 71.7741ZM59.4883 63.0622L62.3167 65.8906L59.4883 63.0622ZM73.7826 8.64233L70.9542 11.4708L73.7826 8.64233ZM112.271 10.2798L115.099 13.1082L112.271 10.2798ZM120.979 8.64264L118.15 11.4711L120.979 8.64264ZM113.908 8.64264L116.736 11.4711L113.908 8.64264ZM129.844 24.5787L132.672 27.4072L129.844 24.5787ZM129.844 17.5077L127.015 20.3361L129.844 17.5077ZM127.968 26.455L125.139 23.6265L127.968 26.455ZM113.907 80.6388L111.078 83.4672L113.907 80.6388ZM111.86 78.5921L114.689 75.7636L111.86 78.5921ZM86.5754 84.2813V81.6214H78.5754V84.2813H86.5754ZM100.112 85.2813H87.5754V93.2813H100.112V85.2813ZM101.112 81.3879V84.2813H109.112V81.3879H101.112ZM116.735 77.8103L114.689 75.7636L109.032 81.4205L111.078 83.4672L116.735 77.8103ZM127.015 68.9453L118.15 77.8103L123.806 83.4672L132.671 74.6022L127.015 68.9453ZM124.969 65.4857L127.015 67.5311L132.671 61.8743L130.626 59.8288L124.969 65.4857ZM133.486 51.9092H130.593V59.9092H133.486V51.9092ZM134.486 38.3722V50.9092H142.486V38.3722H134.486ZM130.832 37.3722H133.486V29.3722H130.832V37.3722ZM127.015 21.7503L125.139 23.6265L130.796 29.2834L132.672 27.4072L127.015 21.7503ZM118.15 11.4711L127.015 20.3361L132.672 14.6792L123.807 5.81422L118.15 11.4711ZM115.099 13.1082L116.736 11.4711L111.079 5.81422L109.442 7.45135L115.099 13.1082ZM101.112 5V7.31303H109.112V5H101.112ZM87.5754 4H100.112V-4H87.5754V4ZM86.5754 7.07762V5H78.5754V7.07762H86.5754ZM70.9542 11.4708L72.423 12.9396L78.0799 7.28275L76.611 5.81391L70.9542 11.4708ZM60.675 20.3358L69.54 11.4708L63.8831 5.8139L55.0181 14.6789L60.675 20.3358ZM62.1451 23.2201L60.675 21.75L55.0181 27.4068L56.4882 28.877L62.1451 23.2201ZM54.2049 37.3722H56.2832V29.3722H54.2049V37.3722ZM53.2049 50.9092V38.3722H45.2049V50.9092H53.2049ZM56.5237 51.9092H54.2049V59.9092H56.5237V51.9092ZM60.6759 67.5314L62.3167 65.8906L56.6598 60.2338L55.019 61.8746L60.6759 67.5314ZM69.5409 77.8107L60.6759 68.9456L55.019 74.6025L63.884 83.4675L69.5409 77.8107ZM72.835 75.9308L70.9551 77.8107L76.612 83.4675L78.4918 81.5876L72.835 75.9308ZM104.58 45.0743C104.58 51.2429 99.5797 56.2435 93.4111 56.2435V64.2435C103.998 64.2435 112.58 55.6612 112.58 45.0743H104.58ZM93.4111 33.9052C99.5797 33.9052 104.58 38.9058 104.58 45.0743H112.58C112.58 34.4875 103.998 25.9052 93.4111 25.9052V33.9052ZM82.242 45.0743C82.242 38.9058 87.2426 33.9052 93.4111 33.9052V25.9052C82.8243 25.9052 74.2419 34.4875 74.2419 45.0743H82.242ZM93.4111 56.2435C87.2426 56.2435 82.242 51.2429 82.242 45.0743H74.2419C74.2419 55.6612 82.8243 64.2435 93.4111 64.2435V56.2435ZM78.4918 81.5876C78.4729 81.6066 78.4502 81.6227 78.4288 81.6336C78.4085 81.644 78.3965 81.6461 78.3964 81.6462C78.3963 81.6462 78.3989 81.6457 78.4042 81.6456C78.4094 81.6454 78.4168 81.6455 78.4261 81.6465C78.445 81.6486 78.4691 81.6539 78.4962 81.6649L81.5106 74.2546C78.684 73.1048 75.2182 73.5476 72.835 75.9308L78.4918 81.5876ZM63.884 83.4675C67.3988 86.9822 73.0972 86.9822 76.612 83.4675L70.9551 77.8107C70.5646 78.2012 69.9314 78.2012 69.5409 77.8107L63.884 83.4675ZM55.019 61.8746C51.5043 65.3893 51.5043 71.0878 55.019 74.6025L60.6759 68.9456C60.2854 68.5551 60.2854 67.922 60.6759 67.5314L55.019 61.8746ZM56.6046 60.0752C56.641 60.1612 56.6407 60.2306 56.6354 60.2621C56.6331 60.2756 56.6311 60.2761 56.6357 60.2669C56.641 60.2564 56.6499 60.2437 56.6598 60.2338L62.3167 65.8906C64.7751 63.4322 65.1954 59.8484 63.9721 56.9575L56.6046 60.0752ZM56.5237 59.9092C56.5026 59.9092 56.4836 59.9054 56.4719 59.9015C56.4617 59.8982 56.4652 59.8976 56.4796 59.9077C56.5132 59.9315 56.5673 59.987 56.6046 60.0752L63.9721 56.9575C62.7738 54.1256 59.9736 51.9092 56.5237 51.9092V59.9092ZM45.2049 50.9092C45.2049 55.8798 49.2343 59.9092 54.2049 59.9092V51.9092C53.6526 51.9092 53.2049 51.4615 53.2049 50.9092H45.2049ZM54.2049 29.3722C49.2343 29.3722 45.2049 33.4016 45.2049 38.3722H53.2049C53.2049 37.8199 53.6526 37.3722 54.2049 37.3722V29.3722ZM56.4522 29.1385C56.4072 29.2476 56.3395 29.321 56.2895 29.3567C56.2473 29.3869 56.2473 29.3722 56.2832 29.3722V37.3722C59.8093 37.3722 62.6566 35.0833 63.8502 32.183L56.4522 29.1385ZM56.4882 28.877C56.4848 28.8735 56.4812 28.8683 56.48 28.8658C56.4794 28.8647 56.4842 28.8737 56.4881 28.896C56.4965 28.945 56.4953 29.0336 56.4522 29.1385L63.8502 32.183C65.0479 29.2727 64.6108 25.6858 62.1451 23.2201L56.4882 28.877ZM55.0181 14.6789C51.5034 18.1936 51.5034 23.8921 55.0181 27.4068L60.675 21.75C60.2844 21.3595 60.2844 20.7263 60.675 20.3358L55.0181 14.6789ZM76.611 5.81391C73.0963 2.29919 67.3979 2.29918 63.8831 5.8139L69.54 11.4708C69.9305 11.0802 70.5637 11.0802 70.9542 11.4708L76.611 5.81391ZM78.3416 7.2467C78.2367 7.28987 78.148 7.29109 78.099 7.28262C78.0766 7.27876 78.0676 7.27393 78.0688 7.27452C78.0712 7.27576 78.0764 7.2793 78.0799 7.28275L72.423 12.9396C74.8891 15.4056 78.4765 15.8425 81.3869 14.6444L78.3416 7.2467ZM78.5754 7.07762C78.5754 7.0417 78.5901 7.04173 78.5599 7.08395C78.5242 7.13397 78.4508 7.20174 78.3416 7.2467L81.3869 14.6444C84.2868 13.4506 86.5754 10.6033 86.5754 7.07762H78.5754ZM87.5754 -4C82.6048 -4 78.5754 0.029438 78.5754 5H86.5754C86.5754 4.44772 87.0231 4 87.5754 4V-4ZM109.112 5C109.112 0.0294406 105.083 -4 100.112 -4V4C100.665 4 101.112 4.44771 101.112 5H109.112ZM109.28 7.39665C109.192 7.3591 109.136 7.30458 109.111 7.27044C109.101 7.25588 109.102 7.25211 109.105 7.26204C109.109 7.27348 109.112 7.29214 109.112 7.31303H101.112C101.112 10.7644 103.33 13.5657 106.163 14.7643L109.28 7.39665ZM109.442 7.45135C109.452 7.44158 109.464 7.43289 109.475 7.42772C109.484 7.42322 109.483 7.42537 109.469 7.42768C109.437 7.43307 109.367 7.4333 109.28 7.39665L106.163 14.7643C109.055 15.9879 112.64 15.5675 115.099 13.1082L109.442 7.45135ZM123.807 5.81422C120.293 2.2995 114.594 2.2995 111.079 5.81422L116.736 11.4711C117.127 11.0805 117.76 11.0805 118.15 11.4711L123.807 5.81422ZM132.672 27.4072C136.187 23.8924 136.187 18.194 132.672 14.6792L127.015 20.3361C127.406 20.7266 127.406 21.3598 127.015 21.7503L132.672 27.4072ZM130.873 29.291C130.862 29.2636 130.856 29.2392 130.854 29.22C130.852 29.2005 130.854 29.19 130.854 29.1894C130.854 29.1892 130.852 29.201 130.842 29.221C130.831 29.2422 130.815 29.2646 130.796 29.2834L125.139 23.6265C122.755 26.0105 122.312 29.4775 123.462 32.305L130.873 29.291ZM130.832 29.3722C130.866 29.3722 130.897 29.3781 130.921 29.386C130.943 29.3934 130.951 29.3998 130.947 29.3971C130.943 29.394 130.93 29.3839 130.915 29.3641C130.899 29.3444 130.885 29.3197 130.873 29.291L123.462 32.305C124.617 35.1438 127.397 37.3722 130.832 37.3722V29.3722ZM142.486 38.3722C142.486 33.4016 138.457 29.3722 133.486 29.3722V37.3722C134.038 37.3722 134.486 37.8199 134.486 38.3722H142.486ZM133.486 59.9092C138.457 59.9092 142.486 55.8798 142.486 50.9092H134.486C134.486 51.4615 134.038 51.9092 133.486 51.9092V59.9092ZM130.721 59.9253C130.729 59.9066 130.738 59.8913 130.747 59.88C130.757 59.8686 130.762 59.8656 130.758 59.8682C130.754 59.871 130.738 59.8815 130.708 59.8915C130.676 59.9019 130.636 59.9092 130.593 59.9092V51.9092C127.234 51.9092 124.5 54.0664 123.341 56.8376L130.721 59.9253ZM130.626 59.8288C130.651 59.8541 130.673 59.8841 130.687 59.9135C130.702 59.9416 130.707 59.962 130.708 59.9707C130.71 59.9842 130.705 59.9644 130.721 59.9253L123.341 56.8376C122.166 59.6459 122.593 63.1092 124.969 65.4857L130.626 59.8288ZM132.671 74.6022C136.186 71.0875 136.186 65.389 132.671 61.8743L127.015 67.5311C127.405 67.9216 127.405 68.5548 127.015 68.9453L132.671 74.6022ZM111.078 83.4672C114.593 86.9819 120.292 86.9819 123.806 83.4672L118.15 77.8103C117.759 78.2009 117.126 78.2009 116.735 77.8103L111.078 83.4672ZM109.128 81.5156C109.168 81.4993 109.187 81.505 109.174 81.5026C109.165 81.5011 109.145 81.4963 109.116 81.482C109.087 81.4671 109.057 81.4458 109.032 81.4205L114.689 75.7636C112.312 73.3875 108.85 72.9607 106.042 74.1352L109.128 81.5156ZM109.112 81.3879C109.112 81.4303 109.105 81.4702 109.095 81.502C109.085 81.5324 109.074 81.5485 109.071 81.5526C109.069 81.5563 109.072 81.5511 109.083 81.542C109.094 81.533 109.11 81.5235 109.128 81.5156L106.042 74.1352C103.27 75.2944 101.112 78.0278 101.112 81.3879H109.112ZM100.112 93.2813C105.083 93.2813 109.112 89.2519 109.112 84.2813H101.112C101.112 84.8336 100.665 85.2813 100.112 85.2813V93.2813ZM86.5754 81.6214C86.5754 78.1879 84.3482 75.4089 81.5106 74.2546L78.4962 81.6649C78.5246 81.6765 78.549 81.6912 78.5684 81.7064C78.588 81.7218 78.5979 81.7342 78.6008 81.7382C78.6034 81.7418 78.5968 81.7337 78.5894 81.7113C78.5814 81.6873 78.5754 81.6555 78.5754 81.6214H86.5754ZM78.5754 84.2813C78.5754 89.2519 82.6048 93.2813 87.5754 93.2813V85.2813C87.0231 85.2813 86.5754 84.8336 86.5754 84.2813H78.5754Z" fill="#058B8C" mask="url(#path-4-inside-1_0_57)"/>
<mask id="path-6-inside-2_0_57" fill="white">
<path fill-rule="evenodd" clip-rule="evenodd" d="M47.391 100.795C48.2398 101.141 48.8411 101.943 48.8411 102.86V103.79C48.8411 105.659 50.3558 107.173 52.2242 107.173H58.09C59.9947 107.173 61.5387 105.629 61.5387 103.725V102.724C61.5387 101.839 62.1138 101.06 62.9309 100.718C63.7529 100.374 64.7086 100.52 65.3387 101.15L66.049 101.86C67.3943 103.206 69.5753 103.206 70.9205 101.86L75.0276 97.7533C76.3728 96.4081 76.3728 94.2271 75.0276 92.8818L74.3173 92.1715C73.6872 91.5414 73.5417 90.5857 73.8856 89.7636C74.2275 88.9464 75.0061 88.3713 75.8919 88.3713H76.8917C78.7961 88.3713 80.34 86.8274 80.34 84.923V79.0564C80.34 77.1882 78.8254 75.6736 76.9572 75.6736H76.0265C75.1103 75.6736 74.3076 75.0724 73.9625 74.2237C73.6216 73.3856 73.7734 72.4173 74.4132 71.7775L75.0654 71.1253C76.3898 69.8009 76.3898 67.6537 75.0654 66.3293L70.8179 62.0818C69.5294 60.7933 67.4403 60.7933 66.1518 62.0818L65.5695 62.664C64.8992 63.3344 63.8809 63.4843 63.0078 63.1149C62.1465 62.7504 61.5387 61.9288 61.5387 60.9935V60.1783C61.5387 58.3519 60.0581 56.8714 58.2318 56.8714H52.0832C50.2926 56.8714 48.8411 58.3229 48.8411 60.1134V60.8573C48.8411 61.8236 48.2064 62.6698 47.3127 63.0375C46.4235 63.4035 45.3929 63.2471 44.7129 62.5672L44.1888 62.043C42.9216 60.7759 40.8672 60.7759 39.6001 62.043L35.2102 66.4329C33.9431 67.7 33.9431 69.7544 35.2102 71.0216L35.7344 71.5458C36.4144 72.2257 36.5707 73.2562 36.2048 74.1454C35.837 75.039 34.9909 75.6736 34.0247 75.6736H33.2804C31.4896 75.6736 30.0379 77.1254 30.0379 78.9162V85.064C30.0379 86.8906 31.5186 88.3713 33.3451 88.3713H34.1604C35.0958 88.3713 35.9174 88.9791 36.282 89.8405C36.6515 90.7136 36.5015 91.7321 35.8311 92.4025L35.249 92.9846C33.9605 94.2731 33.9605 96.3622 35.249 97.6507L39.4965 101.898C40.8209 103.223 42.9681 103.223 44.2925 101.898L44.9446 101.246C45.5845 100.606 46.5528 100.454 47.391 100.795ZM54.9423 90.8132C59.6624 90.8132 63.4888 86.9869 63.4888 82.2668C63.4888 77.5467 59.6624 73.7203 54.9423 73.7203C50.2222 73.7203 46.3958 77.5467 46.3958 82.2668C46.3958 86.9869 50.2222 90.8132 54.9423 90.8132Z"/>
</mask>
<path fill-rule="evenodd" clip-rule="evenodd" d="M47.391 100.795C48.2398 101.141 48.8411 101.943 48.8411 102.86V103.79C48.8411 105.659 50.3558 107.173 52.2242 107.173H58.09C59.9947 107.173 61.5387 105.629 61.5387 103.725V102.724C61.5387 101.839 62.1138 101.06 62.9309 100.718C63.7529 100.374 64.7086 100.52 65.3387 101.15L66.049 101.86C67.3943 103.206 69.5753 103.206 70.9205 101.86L75.0276 97.7533C76.3728 96.4081 76.3728 94.2271 75.0276 92.8818L74.3173 92.1715C73.6872 91.5414 73.5417 90.5857 73.8856 89.7636C74.2275 88.9464 75.0061 88.3713 75.8919 88.3713H76.8917C78.7961 88.3713 80.34 86.8274 80.34 84.923V79.0564C80.34 77.1882 78.8254 75.6736 76.9572 75.6736H76.0265C75.1103 75.6736 74.3076 75.0724 73.9625 74.2237C73.6216 73.3856 73.7734 72.4173 74.4132 71.7775L75.0654 71.1253C76.3898 69.8009 76.3898 67.6537 75.0654 66.3293L70.8179 62.0818C69.5294 60.7933 67.4403 60.7933 66.1518 62.0818L65.5695 62.664C64.8992 63.3344 63.8809 63.4843 63.0078 63.1149C62.1465 62.7504 61.5387 61.9288 61.5387 60.9935V60.1783C61.5387 58.3519 60.0581 56.8714 58.2318 56.8714H52.0832C50.2926 56.8714 48.8411 58.3229 48.8411 60.1134V60.8573C48.8411 61.8236 48.2064 62.6698 47.3127 63.0375C46.4235 63.4035 45.3929 63.2471 44.7129 62.5672L44.1888 62.043C42.9216 60.7759 40.8672 60.7759 39.6001 62.043L35.2102 66.4329C33.9431 67.7 33.9431 69.7544 35.2102 71.0216L35.7344 71.5458C36.4144 72.2257 36.5707 73.2562 36.2048 74.1454C35.837 75.039 34.9909 75.6736 34.0247 75.6736H33.2804C31.4896 75.6736 30.0379 77.1254 30.0379 78.9162V85.064C30.0379 86.8906 31.5186 88.3713 33.3451 88.3713H34.1604C35.0958 88.3713 35.9174 88.9791 36.282 89.8405C36.6515 90.7136 36.5015 91.7321 35.8311 92.4025L35.249 92.9846C33.9605 94.2731 33.9605 96.3622 35.249 97.6507L39.4965 101.898C40.8209 103.223 42.9681 103.223 44.2925 101.898L44.9446 101.246C45.5845 100.606 46.5528 100.454 47.391 100.795ZM54.9423 90.8132C59.6624 90.8132 63.4888 86.9869 63.4888 82.2668C63.4888 77.5467 59.6624 73.7203 54.9423 73.7203C50.2222 73.7203 46.3958 77.5467 46.3958 82.2668C46.3958 86.9869 50.2222 90.8132 54.9423 90.8132Z" fill="white"/>
<path d="M35.249 92.9846L38.0774 95.813L35.249 92.9846ZM35.249 97.6507L32.4205 100.479L35.249 97.6507ZM35.8311 92.4025L33.0027 89.574L35.8311 92.4025ZM35.7344 71.5458L32.906 74.3742L35.7344 71.5458ZM35.2102 66.4329L38.0386 69.2613L35.2102 66.4329ZM35.2102 71.0216L32.3818 73.85L35.2102 71.0216ZM44.7129 62.5672L41.8845 65.3956L44.7129 62.5672ZM65.5695 62.664L68.398 65.4925L65.5695 62.664ZM70.8179 62.0818L67.9895 64.9102L70.8179 62.0818ZM66.1518 62.0818L63.3234 59.2534L66.1518 62.0818ZM74.4132 71.7775L71.5847 68.9491L74.4132 71.7775ZM52.8411 103.79V102.86H44.8411V103.79H52.8411ZM58.09 103.173H52.2242V111.173H58.09V103.173ZM57.5387 102.724V103.725H65.5387V102.724H57.5387ZM68.8775 99.032L68.1671 98.3216L62.5102 103.978L63.2206 104.689L68.8775 99.032ZM72.1992 94.9249L68.0921 99.032L73.749 104.689L77.856 100.582L72.1992 94.9249ZM71.4889 95L72.1992 95.7103L77.856 90.0534L77.1457 89.3431L71.4889 95ZM76.8917 84.3713H75.8919V92.3713H76.8917V84.3713ZM76.34 79.0564V84.923H84.34V79.0564H76.34ZM76.0265 79.6736H76.9572V71.6736H76.0265V79.6736ZM72.237 68.2968L71.5847 68.9491L77.2416 74.606L77.8939 73.9537L72.237 68.2968ZM67.9895 64.9102L72.237 69.1577L77.8939 63.5009L73.6463 59.2534L67.9895 64.9102ZM68.398 65.4925L68.9802 64.9102L63.3234 59.2534L62.7411 59.8356L68.398 65.4925ZM57.5387 60.1783V60.9935H65.5387V60.1783H57.5387ZM52.0832 60.8714H58.2318V52.8714H52.0832V60.8714ZM52.8411 60.8573V60.1134H44.8411V60.8573H52.8411ZM41.3604 64.8714L41.8845 65.3956L47.5414 59.7387L47.0172 59.2146L41.3604 64.8714ZM38.0386 69.2613L42.4285 64.8714L36.7716 59.2146L32.3818 63.6045L38.0386 69.2613ZM38.5629 68.7174L38.0386 68.1931L32.3818 73.85L32.906 74.3742L38.5629 68.7174ZM33.2804 79.6736H34.0247V71.6736H33.2804V79.6736ZM34.0379 85.064V78.9162H26.0379V85.064H34.0379ZM34.1604 84.3713H33.3451V92.3713H34.1604V84.3713ZM38.0774 95.813L38.6595 95.2309L33.0027 89.574L32.4205 90.1562L38.0774 95.813ZM42.3249 99.0698L38.0774 94.8223L32.4205 100.479L36.6681 104.727L42.3249 99.0698ZM42.1162 98.4177L41.464 99.0698L47.1209 104.727L47.773 104.075L42.1162 98.4177ZM59.4888 82.2668C59.4888 84.7777 57.4532 86.8132 54.9423 86.8132V94.8132C61.8715 94.8132 67.4888 89.196 67.4888 82.2668H59.4888ZM54.9423 77.7203C57.4532 77.7203 59.4888 79.7558 59.4888 82.2668H67.4888C67.4888 75.3375 61.8715 69.7203 54.9423 69.7203V77.7203ZM50.3958 82.2668C50.3958 79.7558 52.4314 77.7203 54.9423 77.7203V69.7203C48.0131 69.7203 42.3958 75.3375 42.3958 82.2668H50.3958ZM54.9423 86.8132C52.4314 86.8132 50.3958 84.7777 50.3958 82.2668H42.3958C42.3958 89.196 48.0131 94.8132 54.9423 94.8132V86.8132ZM47.773 104.075C47.1648 104.683 46.3853 104.705 45.8841 104.501L48.8979 97.0901C46.7203 96.2044 44.0041 96.5298 42.1162 98.4177L47.773 104.075ZM36.6681 104.727C39.5545 107.613 44.2344 107.613 47.1209 104.727L41.464 99.0698C41.7018 98.8321 42.0872 98.8321 42.3249 99.0698L36.6681 104.727ZM32.4205 90.1562C29.5699 93.0068 29.5699 97.6285 32.4205 100.479L38.0774 94.8223C38.351 95.0959 38.351 95.5394 38.0774 95.813L32.4205 90.1562ZM32.5983 91.3994C32.4 90.9309 32.4041 90.1726 33.0027 89.574L38.6595 95.2309C40.5989 93.2915 40.903 90.4963 39.9657 88.2816L32.5983 91.3994ZM34.1604 92.3713C33.3057 92.3713 32.7852 91.8412 32.5983 91.3994L39.9657 88.2816C39.0497 86.117 36.8858 84.3713 34.1604 84.3713V92.3713ZM26.0379 85.064C26.0379 89.0997 29.3095 92.3713 33.3451 92.3713V84.3713C33.7277 84.3713 34.0379 84.6814 34.0379 85.064H26.0379ZM33.2804 71.6736C29.2805 71.6736 26.0379 74.9162 26.0379 78.9162H34.0379C34.0379 79.3345 33.6988 79.6736 33.2804 79.6736V71.6736ZM32.5058 72.623C32.6792 72.2018 33.1793 71.6736 34.0247 71.6736V79.6736C36.8026 79.6736 38.9948 77.8761 39.9037 75.6678L32.5058 72.623ZM32.906 74.3742C32.3264 73.7946 32.3233 73.0665 32.5058 72.623L39.9037 75.6678C40.8182 73.446 40.5023 70.6568 38.5629 68.7174L32.906 74.3742ZM32.3818 63.6045C29.5525 66.4337 29.5525 71.0208 32.3818 73.85L38.0386 68.1931C38.3336 68.4881 38.3336 68.9663 38.0386 69.2613L32.3818 63.6045ZM47.0172 59.2146C44.188 56.3853 39.6009 56.3854 36.7716 59.2146L42.4285 64.8714C42.1335 65.1664 41.6553 65.1664 41.3604 64.8714L47.0172 59.2146ZM45.7904 59.3385C46.2338 59.1561 46.9618 59.1592 47.5414 59.7387L41.8845 65.3956C43.824 67.3351 46.6132 67.6509 48.8351 66.7365L45.7904 59.3385ZM44.8411 60.8573C44.8411 60.0119 45.3692 59.5119 45.7904 59.3385L48.8351 66.7365C51.0435 65.8276 52.8411 63.6353 52.8411 60.8573H44.8411ZM52.0832 52.8714C48.0835 52.8714 44.8411 56.1137 44.8411 60.1134H52.8411C52.8411 60.532 52.5018 60.8714 52.0832 60.8714V52.8714ZM65.5387 60.1783C65.5387 56.1428 62.2673 52.8714 58.2318 52.8714V60.8714C57.849 60.8714 57.5387 60.5611 57.5387 60.1783H65.5387ZM64.5667 59.4312C65.0086 59.6182 65.5387 60.1387 65.5387 60.9935H57.5387C57.5387 63.7188 59.2843 65.8826 61.4489 66.7986L64.5667 59.4312ZM62.7411 59.8356C63.3397 59.237 64.0982 59.2329 64.5667 59.4312L61.4489 66.7986C63.6635 67.7358 66.4587 67.4318 68.398 65.4925L62.7411 59.8356ZM73.6463 59.2534C70.7957 56.4027 66.174 56.4027 63.3234 59.2534L68.9802 64.9102C68.7066 65.1838 68.2631 65.1838 67.9895 64.9102L73.6463 59.2534ZM77.8939 73.9537C80.7803 71.0672 80.7803 66.3873 77.8939 63.5009L72.237 69.1577C71.9993 68.92 71.9993 68.5346 72.237 68.2968L77.8939 73.9537ZM77.6678 72.7168C77.8717 73.2181 77.8498 73.9977 77.2416 74.606L71.5847 68.9491C69.6969 70.8369 69.3716 73.553 70.2572 75.7306L77.6678 72.7168ZM76.0265 71.6736C76.9187 71.6736 77.4712 72.2333 77.6678 72.7168L70.2572 75.7306C71.1441 77.9114 73.3019 79.6736 76.0265 79.6736V71.6736ZM84.34 79.0564C84.34 74.979 81.0346 71.6736 76.9572 71.6736V79.6736C76.6163 79.6736 76.34 79.3973 76.34 79.0564H84.34ZM76.8917 92.3713C81.0053 92.3713 84.34 89.0365 84.34 84.923H76.34C76.34 84.6183 76.587 84.3713 76.8917 84.3713V92.3713ZM77.5757 91.3073C77.3652 91.8104 76.7929 92.3713 75.8919 92.3713V84.3713C73.2192 84.3713 71.0897 86.0824 70.1955 88.2198L77.5757 91.3073ZM77.1457 89.3431C77.7731 89.9704 77.796 90.7808 77.5757 91.3073L70.1955 88.2198C69.2874 90.3905 69.6013 93.1124 71.4889 95L77.1457 89.3431ZM77.856 100.582C80.7634 97.6744 80.7634 92.9607 77.856 90.0534L72.1992 95.7103C71.9823 95.4934 71.9823 95.1418 72.1992 94.9249L77.856 100.582ZM63.2206 104.689C66.1279 107.596 70.8417 107.596 73.749 104.689L68.0921 99.032C68.309 98.8151 68.6606 98.8151 68.8775 99.032L63.2206 104.689ZM64.4747 104.408C63.9481 104.629 63.1376 104.606 62.5102 103.978L68.1671 98.3216C66.2796 96.4341 63.5577 96.1202 61.3871 97.0283L64.4747 104.408ZM65.5387 102.724C65.5387 103.626 64.9778 104.198 64.4747 104.408L61.3871 97.0283C59.2497 97.9225 57.5387 100.052 57.5387 102.724H65.5387ZM58.09 111.173C62.2038 111.173 65.5387 107.839 65.5387 103.725H57.5387C57.5387 103.42 57.7855 103.173 58.09 103.173V111.173ZM52.8411 102.86C52.8411 100.135 51.0788 97.977 48.8979 97.0901L45.8841 104.501C45.4007 104.304 44.8411 103.752 44.8411 102.86H52.8411ZM44.8411 103.79C44.8411 107.868 48.1466 111.173 52.2242 111.173V103.173C52.5649 103.173 52.8411 103.45 52.8411 103.79H44.8411Z" fill="#058B8C" mask="url(#path-6-inside-2_0_57)"/>
</svg>
