<svg width="122" height="16" viewBox="0 0 122 16" fill="none" xmlns="http://www.w3.org/2000/svg">
<path d="M4.18632 6.4368H11.6322V9.22788H4.18632V6.4368ZM4.45146 12.8164H12.8695V15.6961H0.894226V0.190094H12.5823V3.06978H4.45146V12.8164ZM22.5889 15.9619C20.3938 15.9619 18.6782 15.3494 17.4409 14.1233C16.2036 12.8973 15.5849 11.1473 15.5849 8.87345V0.190094H19.1643V8.74054C19.1643 10.2169 19.4659 11.2802 20.0701 11.9304C20.6744 12.5805 21.5207 12.905 22.611 12.905C23.7014 12.905 24.5476 12.5805 25.1519 11.9304C25.7562 11.2802 26.0578 10.2169 26.0578 8.74054V0.190094H29.5929V8.87345C29.5929 11.1473 28.9743 12.8973 27.737 14.1233C26.4997 15.3494 24.784 15.9619 22.5889 15.9619ZM33.1303 15.6961V0.190094H39.8249C41.2092 0.190094 42.4023 0.419361 43.4043 0.876788C44.4052 1.31982 45.1785 1.96221 45.7242 2.80396C46.2688 3.64572 46.5417 4.65028 46.5417 5.81656C46.5417 6.96843 46.2688 7.96525 45.7242 8.807C45.1785 9.63436 44.4052 10.269 43.4043 10.712C42.4023 11.1551 41.2092 11.3766 39.8249 11.3766H35.1188L36.7096 9.80381V15.6961H33.1303ZM42.9624 15.6961L39.0958 10.0696H42.9182L46.8289 15.6961H42.9624ZM36.7096 10.2025L35.1188 8.51903H39.6261C40.7308 8.51903 41.555 8.28312 42.1007 7.81018C42.6453 7.32285 42.9182 6.65831 42.9182 5.81656C42.9182 4.9604 42.6453 4.29586 42.1007 3.82293C41.555 3.35 40.7308 3.11408 39.6261 3.11408H35.1188L36.7096 1.40842V10.2025ZM52.6697 6.4368H60.1155V9.22788H52.6697V6.4368ZM52.9348 12.8164H61.3528V15.6961H49.3776V0.190094H61.0656V3.06978H52.9348V12.8164ZM67.4045 12.1519L67.2057 8.00955L74.6074 0.190094H78.5844L71.9119 7.38931L69.9233 9.51585L67.4045 12.1519ZM64.2008 15.6961V0.190094H67.7581V15.6961H64.2008ZM74.7841 15.6961L69.2826 8.93991L71.6246 6.39249L78.96 15.6961H74.7841ZM77.8111 15.6961L84.7046 0.190094H88.2398L95.1554 15.6961H91.3993L85.7431 2.00651H87.1571L81.4788 15.6961H77.8111ZM81.2579 12.3734L82.2079 9.64875H90.162L91.1342 12.3734H81.2579ZM103.017 15.6961V0.190094H106.596V15.6961H103.017ZM113.471 15.6961V3.11408H108.522V0.190094H121.999V3.11408H117.05V15.6961H113.471Z" fill="white"/>
</svg>
