<svg width="176" height="58" viewBox="0 0 176 58" fill="none" xmlns="http://www.w3.org/2000/svg">
<path d="M58.1863 20.4368H65.6322V23.2279H58.1863V20.4368ZM58.4515 26.8164H66.8695V29.6961H54.8942V14.1901H66.5823V17.0698H58.4515V26.8164ZM76.5889 29.9619C74.3938 29.9619 72.6782 29.3494 71.4409 28.1233C70.2036 26.8973 69.5849 25.1473 69.5849 22.8735V14.1901H73.1643V22.7405C73.1643 24.2169 73.4659 25.2802 74.0701 25.9304C74.6744 26.5805 75.5207 26.905 76.611 26.905C77.7014 26.905 78.5476 26.5805 79.1519 25.9304C79.7562 25.2802 80.0578 24.2169 80.0578 22.7405V14.1901H83.5929V22.8735C83.5929 25.1473 82.9743 26.8973 81.737 28.1233C80.4997 29.3494 78.784 29.9619 76.5889 29.9619ZM87.1303 29.6961V14.1901H93.8249C95.2092 14.1901 96.4023 14.4194 97.4043 14.8768C98.4052 15.3198 99.1785 15.9622 99.7242 16.804C100.269 17.6457 100.542 18.6503 100.542 19.8166C100.542 20.9684 100.269 21.9652 99.7242 22.807C99.1785 23.6344 98.4052 24.269 97.4043 24.712C96.4023 25.1551 95.2092 25.3766 93.8249 25.3766H89.1188L90.7096 23.8038V29.6961H87.1303ZM96.9624 29.6961L93.0958 24.0696H96.9182L100.829 29.6961H96.9624ZM90.7096 24.2025L89.1188 22.519H93.6261C94.7308 22.519 95.555 22.2831 96.1007 21.8102C96.6453 21.3229 96.9182 20.6583 96.9182 19.8166C96.9182 18.9604 96.6453 18.2959 96.1007 17.8229C95.555 17.35 94.7308 17.1141 93.6261 17.1141H89.1188L90.7096 15.4084V24.2025ZM106.67 20.4368H114.116V23.2279H106.67V20.4368ZM106.935 26.8164H115.353V29.6961H103.378V14.1901H115.066V17.0698H106.935V26.8164ZM121.405 26.1519L121.206 22.0095L128.607 14.1901H132.584L125.912 21.3893L123.923 23.5158L121.405 26.1519ZM118.201 29.6961V14.1901H121.758V29.6961H118.201ZM128.784 29.6961L123.283 22.9399L125.625 20.3925L132.96 29.6961H128.784ZM131.811 29.6961L138.705 14.1901H142.24L149.155 29.6961H145.399L139.743 16.0065H141.157L135.479 29.6961H131.811ZM135.258 26.3734L136.208 23.6488H144.162L145.134 26.3734H135.258ZM157.017 29.6961V14.1901H160.596V29.6961H157.017ZM167.471 29.6961V17.1141H162.522V14.1901H175.999V17.1141H171.05V29.6961H167.471Z" fill="white"/>
<path d="M11.9761 13.502L4.84137 20.6339L6.26279 22.0548L13.3975 14.9229L11.9761 13.502Z" fill="white"/>
<path fill-rule="evenodd" clip-rule="evenodd" d="M11.9772 13.4081L13.413 11.9729L11.2803 9.84217C10.8694 9.43037 10.664 8.93909 10.664 8.40696V3.15738L9.22823 1.72217L8.65392 2.29625V8.6112H2.33871L1.7644 9.18528L3.15821 10.6591H8.40873C8.94218 10.6591 9.47452 10.8645 9.84451 11.2332L11.9772 13.4081Z" fill="white"/>
<path d="M20.6251 4.84976L13.4904 11.9817L14.9107 13.4025L22.0454 6.27062L20.6251 4.84976Z" fill="white"/>
<path fill-rule="evenodd" clip-rule="evenodd" d="M18.4995 2.62422L20.6322 4.75606L22.0679 3.32085L19.9364 1.19011C19.5601 0.811641 19.1125 0.51157 18.6193 0.307279C18.1262 0.102988 17.5975 -0.00146025 17.0637 -1.57369e-05H10.9926L10.4183 0.57407L11.854 2.00928H17.1046C17.596 2.00928 18.0886 2.21463 18.4995 2.62422ZM24.2834 1.189L22.1508 3.32085L23.5865 4.75606L25.7181 2.62422C26.1036 2.25323 26.6188 2.04725 27.1539 2.05013H32.4055L33.8413 0.614918L33.2261 -1.57369e-05H27.1141C26.0472 -1.57369e-05 25.0212 0.409572 24.2834 1.189Z" fill="white"/>
<path d="M23.5344 4.84424L22.113 6.2651L29.2488 13.397L30.6702 11.9773L23.5355 4.84534L23.5344 4.84424ZM29.2819 13.4942L22.1472 20.6261L23.5675 22.048L30.7022 14.9161L29.2819 13.4942Z" fill="white"/>
<path fill-rule="evenodd" clip-rule="evenodd" d="M30.7644 11.973L32.2002 13.4082L34.3329 11.2764C34.7028 10.9065 35.2352 10.7023 35.7686 10.7023H41.0192L42.4549 9.26709L41.8806 8.693H35.5223V2.33721L34.948 1.76312L33.5123 3.19834V8.4457C33.5123 8.97894 33.3079 9.51218 32.9379 9.88092L30.7644 11.9719V11.973Z" fill="white"/>
<path d="M32.1941 13.491L30.7716 14.9118L37.9063 22.0437L39.3277 20.6229L32.1941 13.491Z" fill="white"/>
<path fill-rule="evenodd" clip-rule="evenodd" d="M42.1685 11.8086V17.057C42.1685 17.5903 41.9631 18.1235 41.5942 18.4922L39.4615 20.6241L40.8973 22.0593L43.03 19.9286C43.7846 19.1626 44.2112 18.1331 44.2195 17.0581V10.9883L43.6451 10.4142L42.1685 11.8074V11.8086ZM42.9891 24.2739L40.8564 22.1432L39.4207 23.5784L41.5533 25.7092C41.9222 26.0779 42.1276 26.6111 42.1276 27.1444V32.3928L43.5634 33.8281L44.1377 33.254V27.1046C44.16 26.5781 44.069 26.053 43.8708 25.5646C43.6727 25.0763 43.372 24.6362 42.9891 24.2739Z" fill="white"/>
<path d="M37.9111 22.1112L30.7764 29.2431L32.1978 30.6651L39.3325 23.5332L37.9111 22.1112Z" fill="white"/>
<path fill-rule="evenodd" clip-rule="evenodd" d="M35.7692 33.499C35.2358 33.499 34.7035 33.2948 34.3335 32.9249L32.2019 30.7522L30.7661 32.1874L32.8977 34.3193C33.2677 34.6891 33.472 35.2213 33.472 35.7545V41.003L34.9078 42.4382L35.4821 41.8641V35.5083H41.8404L42.4147 34.9342L40.9789 33.499H35.7692ZM32.3653 42.1511H27.1148C26.5814 42.1511 26.0479 41.9458 25.6791 41.5771L23.5464 39.4452L22.1106 40.8804L24.2422 43.0123C25.0084 43.7666 26.0383 44.1931 27.1137 44.2013H33.2268L33.8011 43.6272L32.3653 42.1511Z" fill="white"/>
<path d="M29.2612 30.7655L22.1265 37.8974L23.5468 39.3194L30.6815 32.1874L29.2612 30.7655ZM23.5435 22.1454L22.1221 23.5662L29.2568 30.6981L30.6782 29.2773L23.5435 22.1454ZM20.6034 22.12L13.4688 29.2519L14.8902 30.6727L22.0249 23.5408L20.6034 22.12Z" fill="white"/>
<path fill-rule="evenodd" clip-rule="evenodd" d="M13.4141 32.1874L11.9783 30.7522L9.84564 32.926C9.47565 33.2948 8.94331 33.5001 8.40987 33.5001H3.15935L1.72357 34.9353L2.29788 35.5094H8.61529V41.8233L9.1896 42.3973L10.6651 41.003V35.7545C10.6651 35.2213 10.8706 34.6891 11.2394 34.3193L13.4141 32.1874Z" fill="white"/>
<path d="M14.9238 30.7687L13.5024 32.1907L20.6371 39.3226L22.0585 37.9018L14.9238 30.7687Z" fill="white"/>
<path fill-rule="evenodd" clip-rule="evenodd" d="M18.4995 41.5362C18.1306 41.905 17.5971 42.1103 17.0637 42.1103H11.8132L10.3774 43.5455L10.9517 44.1196H17.0228C18.0897 44.1196 19.1146 43.71 19.8944 42.9306L22.027 40.7987L20.5913 39.3635L18.4995 41.5362Z" fill="white"/>
<path d="M14.9141 13.4689L13.4937 14.8908L20.6284 22.0228L22.0499 20.6019L14.9141 13.47V13.4689ZM6.26517 22.1243L4.84375 23.5441L11.9784 30.676L13.401 29.2562L6.26627 22.1243H6.26517Z" fill="white"/>
<path fill-rule="evenodd" clip-rule="evenodd" d="M2.62526 25.7091L4.75794 23.5773L3.32216 22.1421L1.19059 24.2739C0.408644 25.0125 0 26.037 0 27.1035V33.2131L0.57431 33.7872L2.01009 32.352V27.1035C2.01009 26.5703 2.21551 26.0779 2.62526 25.7091ZM1.18948 19.8866L3.32216 22.0184L4.75794 20.5832L2.62526 18.4525C2.25372 18.0674 2.0476 17.5523 2.05095 17.0173V11.8085L0.615175 10.3733L0 10.9894V17.057C0 18.1235 0.409748 19.1491 1.18948 19.8866Z" fill="white"/>
</svg>
